<svg stroke-width="0" viewBox="0 0 40 40"
  xmlns="http://www.w3.org/2000/svg">
  <path d="M39.317 18.328c0 7.697-6.247 13.937-13.953 13.937-7.706 0-13.953-6.24-13.953-13.938 0-7.697 6.247-13.937 13.953-13.937 7.706 0 13.953 6.24 13.953 13.938Z" fill-opacity=".5"></path>
  <path d="M15.628 22.261c0 4.122-3.345 7.464-7.473 7.464-4.126 0-7.472-3.342-7.472-7.464s3.346-7.464 7.473-7.464 7.472 3.342 7.472 7.464Z" fill-opacity=".5"></path>
  <path d="M15.129 28.053h6.332l.989 4.212h-8.186l.865-4.212Z" fill="#192736"></path>
  <path d="M5.272 11.018c0-.958.777-1.734 1.736-1.734h22.325c.959 0 1.736.776 1.736 1.734V26.38c0 .958-.777 1.735-1.736 1.735H7.008a1.735 1.735 0 0 1-1.736-1.735V11.018Z" fill="#293B4A"></path>
  <path d="M6.698 11.39c0-.48.389-.867.868-.867H28.9c.48 0 .868.388.868.867v10.902H6.698V11.39Z" fill="#41596C"></path>
  <path d="M5.272 23.407h25.797v3.221c0 .958-.777 1.734-1.736 1.734H7.008a1.735 1.735 0 0 1-1.736-1.734v-3.221Z" fill="#1F2F40"></path>
  <path d="M11.473 33.07c0-.445.361-.805.806-.805h11.783a.806.806 0 1 1 0 1.61H12.279a.806.806 0 0 1-.806-.805Z" fill="#2C3F51"></path>
  <path d="M14.69 14.123c1.656-2.773 5.677-2.773 7.333 0 1.698 2.843-.352 6.45-3.666 6.45s-5.365-3.607-3.667-6.45Z" fill="#E42443"></path>
  <path d="M19.288 18.425a.683.683 0 0 0 .965-.963l-1.052-1.051 1.052-1.052a.68.68 0 1 0-.965-.963l-1.052 1.051-1.052-1.051a.683.683 0 0 0-.965.963l1.052 1.052-1.052 1.05a.68.68 0 1 0 .965.965l1.052-1.052 1.052 1.052Z" fill="#fff"></path>
  <path d="M25.86 19.11a1.59 1.59 0 0 1 1.59-1.588h7.2c.877 0 1.59.711 1.59 1.588v14.912a1.59 1.59 0 0 1-1.59 1.588h-7.2a1.59 1.59 0 0 1-1.59-1.588V19.11Z" fill="#2A3F55"></path>
  <path d="M26.744 19.287c0-.463.375-.838.839-.838h6.934c.463 0 .839.375.839.838v14.558a.839.839 0 0 1-.84.838h-6.933a.839.839 0 0 1-.84-.838V19.287Z" fill="#54708B"></path>
  <path d="M29.305 19.645a.42.42 0 0 1 .42-.42h2.65a.42.42 0 1 1 0 .839h-2.65a.42.42 0 0 1-.42-.42Z" fill="#2C3E50"></path>
  <path d="M33.59 26.257c0 1.389-1.138 2.515-2.54 2.515-1.403 0-2.54-1.126-2.54-2.515 0-1.389 1.137-2.514 2.54-2.514 1.402 0 2.54 1.126 2.54 2.514Z" fill="#E42443"></path>
  <path d="M31.538 27.178a.32.32 0 0 0 .454-.453l-.495-.495.495-.494a.32.32 0 1 0-.454-.453l-.495.494-.494-.494a.32.32 0 0 0-.454.453l.495.494-.495.495a.32.32 0 1 0 .454.453l.494-.495.495.495Z" fill="#fff"></path>
  <path d="M36.092 12.784a1.457 1.457 0 1 1-2.913-.002 1.457 1.457 0 0 1 2.913.002ZM33.178 9.005a.713.713 0 1 1-1.426 0 .713.713 0 0 1 1.426 0Z" fill="#41596C" fill-opacity=".8"></path>
  <path d="M8.187 31.614a1.456 1.456 0 1 1-2.913-.001 1.456 1.456 0 0 1 2.913.001ZM9.489 32.76a.496.496 0 1 1-.992 0 .496.496 0 0 1 .992 0ZM12.59 6.713a.589.589 0 1 1-1.178 0 .589.589 0 0 1 1.177 0ZM14.574 7.921a.372.372 0 1 1-.744 0 .372.372 0 0 1 .744 0Z" fill="#41596C" fill-opacity=".5"></path>
  <path d="M27.287 12.784a1.457 1.457 0 1 1-2.914-.002 1.457 1.457 0 0 1 2.913.002Z" fill="#41596C"></path>
</svg>